PathFileType	4	(X/Y/Z)	E:\Qualisys_Data\Carbon_Farble_Plate\Data\Amateur_Runner\S1\T2\S1T2V13_c3d.trc
DataRate	CameraRate	NumFrames	NumMarkers	Units	OrigDataRate	OrigDataStartFrame	OrigNumFrames
200.000000	200.000000	4	39	mm	200.000000	230	307
Frame#	Time	LSHO			RSHO			LICST			RICST			LASIS			LHEEL			RASIS			LTROC			RTROC			SACR			LTH1			LSK4			LTH2			LTH3			RHM5			LSK2			LTH4			RTH1			LTOE			RTH2			RTH3			RTH4			LLEP			RLEP			LSK1			LSK3			RSK1			LHM5			RSK2			LFT1			RSK3			RSK4			LLME			RLME			RTOE			RHEEL			RFT1			RFT2			LFT2			
		X1	Y1	Z1	X2	Y2	Z2	X3	Y3	Z3	X4	Y4	Z4	X5	Y5	Z5	X6	Y6	Z6	X7	Y7	Z7	X8	Y8	Z8	X9	Y9	Z9	X10	Y10	Z10	X11	Y11	Z11	X12	Y12	Z12	X13	Y13	Z13	X14	Y14	Z14	X15	Y15	Z15	X16	Y16	Z16	X17	Y17	Z17	X18	Y18	Z18	X19	Y19	Z19	X20	Y20	Z20	X21	Y21	Z21	X22	Y22	Z22	X23	Y23	Z23	X24	Y24	Z24	X25	Y25	Z25	X26	Y26	Z26	X27	Y27	Z27	X28	Y28	Z28	X29	Y29	Z29	X30	Y30	Z30	X31	Y31	Z31	X32	Y32	Z32	X33	Y33	Z33	X34	Y34	Z34	X35	Y35	Z35	X36	Y36	Z36	X37	Y37	Z37	X38	Y38	Z38	X39	Y39	Z39	

231	1.15	1578.784423828125	1508.922729492188	-583.2774047851562	1636.4599609375	1520.355102539062	-267.5482177734375	1576.261108398438	1053.15673828125	-531.1722412109375	1591.090698242188	1061.90771484375	-233.7114105224609	1622.1826171875	1014.826293945312	-506.4996032714844	1700.378540039062	74.95149993896484	-414.35986328125	1625.945922851562	1011.236999511719	-244.1708068847656	1523.3466796875	928.7079467773438	-551.3365478515625	1507.097900390625	934.2199096679688	-205.9083099365234	1464.934814453125	1074.475341796875	-373.68798828125	1685.7646484375	807.444580078125	-526.9268188476562	1671.724609375	245.8577270507812	-456.7134094238281	1610.048095703125	777.2781982421875	-554.888916015625	1714.440185546875	708.6182250976562	-508.3470458984375	1069.93701171875	207.8034057617188	-231.1172180175781	1662.775024414062	341.8236389160156	-498.7216186523438	1634.632568359375	682.9445190429688	-528.6766967773438	1603.0927734375	781.288330078125	-245.2501525878906	1940.424438476562	158.2792663574219	-443.7724914550781	1533.135620117188	793.1724243164062	-211.7745208740234	1581.735595703125	682.9066772460938	-254.5214691162109	1507.615356445312	697.477294921875	-226.1908721923828	1711.784301757812	554.3590087890625	-486.2906188964844	1480.16064453125	528.2767333984375	-261.5820922851562	1747.34130859375	345.6740417480469	-491.671875	1749.065307617188	244.8968048095703	-483.5046081542969	1314.8798828125	435.343994140625	-239.0995178222656	1885.542358398438	99.4055404663086	-501.8927307128906	1277.374267578125	507.1033935546875	-252.1602783203125	1722.135986328125	52.33475112915039	-390.5044555664062	1226.6591796875	387.23388671875	-246.5294342041016	1190.729736328125	456.9469299316406	-269.9819641113281	1735.361694335938	118.2764282226562	-472.7285461425781	1096.839721679688	355.7974853515625	-242.3956451416016	1104.290771484375	157.8159332275391	-307.2737731933594	1042.731811523438	401.8261413574219	-282.8880615234375	1016.7578125	382.873046875	-314.4952087402344	1016.772399902344	389.6338806152344	-258.6966247558594	1716.208862304688	46.2213020324707	-444.0347290039062
232	1.155	1596.345703125	1503.861328125	-584.8908081054688	1652.196899414062	1516.753662109375	-268.6136169433594	1591.679321289062	1049.366333007812	-531.7304077148438	1607.891235351562	1058.1396484375	-233.8907165527344	1637.479125976562	1010.266784667969	-510.0182800292969	1707.474975585938	75.06188201904297	-413.9455871582031	1642.107421875	1007.241149902344	-245.4601287841797	1539.232177734375	925.54931640625	-551.4300537109375	1524.323608398438	929.6434936523438	-205.9456634521484	1480.901977539062	1070.52392578125	-373.7304077148438	1702.827514648438	805.5057373046875	-527.69189453125	1682.332763671875	242.0364227294922	-457.117431640625	1626.640258789062	774.5634765625	-554.025390625	1732.0283203125	706.5875854492188	-508.5221862792969	1089.443725585938	210.4016265869141	-231.2661285400391	1674.845458984375	338.170166015625	-498.69921875	1652.181030273438	680.2485961914062	-527.7994995117188	1622.400024414062	777.7109985351562	-245.2314300537109	1948.42431640625	149.2710113525391	-442.7099914550781	1552.132568359375	788.5018920898438	-212.3041534423828	1602.672241210938	678.885009765625	-254.2675476074219	1527.9921875	692.7288208007812	-226.4067687988281	1727.509033203125	550.440673828125	-487.3319702148438	1503.440185546875	523.0107421875	-261.8634033203125	1759.778686523438	340.5742797851562	-492.1407165527344	1757.763427734375	239.3201751708984	-483.5251159667969	1337.302978515625	433.2426452636719	-238.6801910400391	1892.77734375	92.15479278564452	-500.8766174316406	1301.2236328125	505.2071533203125	-253.2192535400391	1727.631958007812	51.15749359130859	-390.6411743164062	1248.30908203125	386.4673767089844	-246.7746124267578	1213.736450195312	456.6502075195312	-270.6539001464844	1743.881713867188	114.26953125	-472.8306884765625	1117.889526367188	357.9057312011719	-243.6359100341797	1123.869873046875	159.9687652587891	-307.3641357421875	1064.532104492188	405.0755615234375	-283.9400024414062	1038.347290039062	385.9611206054688	-315.2778015136719	1038.3994140625	392.6019592285156	-260.0213928222656	1721.544921875	45.91727066040039	-443.9467468261719
233	1.16	1613.788940429688	1498.60107421875	-586.3045043945312	1668.070678710938	1512.969848632812	-269.6694946289062	1607.713134765625	1046.082275390625	-531.8897705078125	1624.168090820312	1053.74951171875	-233.9280090332031	1655.458374023438	1007.86376953125	-510.4934997558594	1712.864501953125	77.54871368408203	-413.8990478515625	1658.669311523438	1003.291198730469	-246.1543884277344	1555.0361328125	921.51806640625	-551.261962890625	1541.376953125	924.4923706054688	-206.55078125	1497.146606445312	1066.174560546875	-373.4834899902344	1719.789428710938	802.4000244140625	-528.0059814453125	1692.209350585938	238.0229644775391	-456.9397277832031	1643.7822265625	771.6563110351562	-554.1575317382812	1749.578857421875	704.0178833007812	-510.6152648925781	1109.832275390625	212.9281768798828	-231.4738464355469	1686.623657226562	334.69677734375	-498.9842224121094	1669.737182617188	677.4154052734375	-527.1092529296875	1641.601684570312	773.8598022460938	-245.0547027587891	1956.265747070312	136.9747924804688	-441.6741333007812	1570.66796875	783.8693237304688	-212.8887939453125	1623.798706054688	674.8170166015625	-253.4242553710938	1548.655029296875	687.3370361328125	-227.3682708740234	1743.257202148438	546.0901489257812	-488.1482849121094	1527.326416015625	517.6703491210938	-261.3015747070312	1771.709350585938	334.7252807617188	-492.5078430175781	1767.818115234375	234.0800018310547	-483.92626953125	1359.903442382812	430.5863342285156	-238.5933380126953	1897.645141601562	83.66349792480469	-499.681640625	1325.44384765625	503.5071716308594	-253.7402801513672	1730.425048828125	52.20674896240234	-390.2489013671875	1270.01025390625	385.2134399414062	-247.3609619140625	1237.222045898438	456.2105712890625	-271.5972290039062	1750.667724609375	111.0840759277344	-473.2975463867188	1139.786010742188	360.3459167480469	-244.1875610351562	1144.332885742188	162.0760498046875	-306.9546203613281	1086.412963867188	407.6816711425781	-285.1443786621094	1060.828857421875	388.8545532226562	-316.6156921386719	1059.7861328125	394.9163513183594	-260.5932922363281	1724.93359375	47.25091171264648	-443.5640258789062
234	1.165	1631.501708984375	1492.822265625	-587.858642578125	1683.4814453125	1508.508422851562	-270.8367004394531	1623.547973632812	1042.1416015625	-532.4354858398438	1640.287963867188	1049.771240234375	-234.2186737060547	1671.81640625	1004.620971679688	-510.7882385253906	1718.691772460938	77.00411987304688	-414.1848754882812	1675.037963867188	998.951171875	-246.7981262207031	1570.92822265625	917.0790405273438	-551.4288940429688	1558.5458984375	919.4703979492188	-207.0074920654297	1512.954223632812	1061.456909179688	-373.7138671875	1736.344848632812	799.2317504882812	-528.4732666015625	1701.9384765625	234.1121368408203	-457.583251953125	1660.55615234375	767.5184936523438	-553.6341552734375	1766.634033203125	700.9874877929688	-510.785400390625	1130.983520507812	215.4936370849609	-231.5642242431641	1698.587036132812	330.0165710449219	-499.3801574707031	1687.130249023438	673.25537109375	-526.5518798828125	1661.101684570312	770.1761474609375	-244.9279327392578	1963.525024414062	124.1936264038086	-440.8751525878906	1589.536499023438	779.070068359375	-213.486083984375	1644.943115234375	670.718505859375	-252.4846343994141	1569.01171875	682.2342529296875	-227.6156921386719	1758.637084960938	541.1314086914062	-489.092529296875	1551.3212890625	512.9470825195312	-260.308837890625	1783.711791992188	329.355224609375	-492.5579833984375	1777.68408203125	228.6356201171875	-483.8392333984375	1383.209350585938	427.8166809082031	-238.4283294677734	1902.00390625	72.96150970458984	-497.9145812988281	1350.317138671875	501.4949035644531	-254.4607696533203	1734.3544921875	52.53008270263672	-390.2493591308594	1292.76318359375	384.5081481933594	-247.67138671875	1261.259399414062	455.8220825195312	-272.0999145507812	1757.446166992188	106.8408279418945	-473.1375732421875	1162.116455078125	362.1054077148438	-244.6228637695312	1165.717895507812	163.8291931152344	-306.6116638183594	1109.05712890625	409.7183227539062	-286.1093139648438	1083.587890625	390.917236328125	-317.8819885253906	1082.05029296875	397.4360046386719	-261.9106140136719	1726.980346679688	44.90459060668945	-442.4861145019531
